# xmcd
#
# Track frame offsets: 
#        150
#        11085
#        16957
#        31447
#        43616
#        58470
#        70328
#        83999
#        95897
#        108162
#        122033
#        136494
#        150907
#        160672
#        166140
#        179884
#        185895
#        200538
#        212049
#        220091
#        231581
#        244225
#        255506
#        268017
#        279576
#        281513
#        295203
#
# Disc length: 4075 seconds
#
# Revision: 0
# Processed by: cddbd v1.5.2PL0 Copyright (c) Steve Scherf et al.
# Submitted via: ExactAudioCopy v0.95b3
#
DISCID=a00fe91b
DTITLE=The Beatles  - Live 08 - Sheaken, Not Stirred - Disc 1
DYEAR=1900
DGENRE=
TTITLE0=intro (The Greatest Live Moment Of Their Career)
TTITLE1=Twist And Shout (The Greatest Live Moment Of Their Career)
TTITLE2=Shes A Woman (The Greatest Live Moment Of Their Career)
TTITLE3=I Feel Fine (The Greatest Live Moment Of Their Career)
TTITLE4=Dizzy Miss Lizzy (The Greatest Live Moment Of Their Career)
TTITLE5=Ticket To Ride (The Greatest Live Moment Of Their Career)
TTITLE6=Everybodys Trying To Be My Baby (The Greatest Live Moment Of T
TTITLE6=heir Career)
TTITLE7=Cant Buy Me Love (The Greatest Live Moment Of Their Career)
TTITLE8=Babys In Black (The Greatest Live Moment Of Their Career)
TTITLE9=I Wanna Be Your Man (The Greatest Live Moment Of Their Career)
TTITLE10=A Hard Days Night (The Greatest Live Moment Of Their Career)
TTITLE11=Help! (The Greatest Live Moment Of Their Career)
TTITLE12=I'm Down (The Greatest Live Moment Of Their Career)
TTITLE13=outro (The Greatest Live Moment Of Their Career)
TTITLE14=intro (piece de resistance: Atlanta 65)
TTITLE15=Twist And Shout (piece de resistance: Atlanta 65)
TTITLE16=She's A Woman (piece de resistance: Atlanta 65)
TTITLE17=I Feel Fine (piece de resistance: Atlanta 65 and Vinyl To The C
TTITLE17=ore)
TTITLE18=Dizzy Miss Lizzy (Vinyl To The Core and piece de resistance: At
TTITLE18=lanta 65)
TTITLE19=Ticket To Ride (piece de resistance: Atlanta 65)
TTITLE20=Everybody's Trying To Be My Baby (piece de resistance: Atlant
TTITLE20=a 65)
TTITLE21=Can't Buy Me Love (Lennon-McCartney) (piece de resistance: At
TTITLE21=lanta 65)
TTITLE22=Baby's In Black (Lennon-McCartney) (piece de resistance: Atla
TTITLE22=nta 65)
TTITLE23=I Wanna Be Your Man (Lennon-McCartney) (piece de resistance: 
TTITLE23=Atlanta 65)
TTITLE24=intro (piece de resistance: Atlanta 65)
TTITLE25=Help! (Lennon-McCartney) (piece de resistance Atlanta 65)
TTITLE26=I'm Down (Lennon-McCartney) (piece de resistance  Atlanta 65)
EXTD=
EXTT0=
EXTT1=
EXTT2=
EXTT3=
EXTT4=
EXTT5=
EXTT6=
EXTT7=
EXTT8=
EXTT9=
EXTT10=
EXTT11=
EXTT12=
EXTT13=
EXTT14=
EXTT15=
EXTT16=
EXTT17=
EXTT18=
EXTT19=
EXTT20=
EXTT21=
EXTT22=
EXTT23=
EXTT24=
EXTT25=
EXTT26=
PLAYORDER=
